<svg xmlns="http://www.w3.org/2000/svg" width="500" height="500" fill="none"><rect width="500" height="500" fill="#FFFCF0" rx="250"/><circle cx="250" cy="250" r="65.046" fill="#CF8D87"/><circle cx="127.136" cy="127.136" r="36.136" fill="#CF8D87"/><circle cx="369.25" cy="127.136" r="36.136" fill="#CF8D87"/><circle cx="127.136" cy="372.864" r="36.136" fill="#CF8D87"/><circle cx="372.864" cy="372.864" r="36.136" fill="#CF8D87"/><path fill="#AF3029" d="M250 91c19.958 0 36.137 16.179 36.137 36.137 0 7.254-2.138 14.01-5.819 19.67-8.096 12.452-19.477 24.916-19.477 39.769v11.567c0 10.34 7.399 18.993 14.711 26.305 7.311 7.312 15.965 14.711 26.305 14.711h11.568c14.853 0 27.317-11.381 39.769-19.477a35.969 35.969 0 0 1 19.67-5.818c19.958 0 36.137 16.178 36.137 36.136 0 19.958-16.179 36.137-36.137 36.137a35.956 35.956 0 0 1-19.67-5.819c-12.452-8.096-24.916-19.477-39.769-19.477h-11.568c-10.34 0-18.993 7.399-26.305 14.71-7.312 7.312-14.711 15.965-14.711 26.305v11.568c0 14.853 11.381 27.317 19.477 39.77a35.956 35.956 0 0 1 5.819 19.67c0 19.958-16.179 36.137-36.137 36.137-19.958 0-36.136-16.179-36.136-36.137 0-7.254 2.138-14.01 5.818-19.67 8.096-12.453 19.477-24.917 19.477-39.77v-11.569c0-10.34-7.399-18.992-14.71-26.304-7.312-7.311-15.965-14.71-26.304-14.71h-11.569c-14.853 0-27.317 11.381-39.769 19.477a35.959 35.959 0 0 1-19.67 5.819C107.179 286.137 91 269.958 91 250c0-19.958 16.179-36.136 36.137-36.136a35.963 35.963 0 0 1 19.669 5.818c12.453 8.096 24.917 19.477 39.77 19.477h11.569c10.339 0 18.992-7.399 26.304-14.711 7.311-7.312 14.71-15.965 14.71-26.305v-11.567c0-14.853-11.381-27.317-19.477-39.77a35.963 35.963 0 0 1-5.818-19.669C213.864 107.179 230.042 91 250 91Z"/></svg>
